<!-- Generated by IcoMoon.io -->
<svg version="1.1" xmlns="http://www.w3.org/2000/svg" width="55" height="64" viewBox="0 0 55 64">
<title>user-o</title>
<path fill="#1e90ff" d="M42.893 28c5.036 1.464 11.964 6.429 11.964 22.679 0 7.357-5.464 13.321-12.179 13.321h-30.5c-6.714 0-12.179-5.964-12.179-13.321 0-16.25 6.929-21.214 11.964-22.679-1.786-2.821-2.821-6.143-2.821-9.714 0-10.071 8.214-18.286 18.286-18.286s18.286 8.214 18.286 18.286c0 3.571-1.036 6.893-2.821 9.714zM27.429 4.571c-7.571 0-13.714 6.143-13.714 13.714s6.143 13.714 13.714 13.714 13.714-6.143 13.714-13.714-6.143-13.714-13.714-13.714zM42.679 59.429c4.179 0 7.607-3.893 7.607-8.75 0-11.25-3.786-18.286-10.857-18.643-3.214 2.821-7.393 4.536-12 4.536s-8.786-1.714-12-4.536c-7.071 0.357-10.857 7.393-10.857 18.643 0 4.857 3.429 8.75 7.607 8.75h30.5z"></path>
</svg>
